<svg width="181" height="62" viewBox="0 0 181 62" fill="none" xmlns="http://www.w3.org/2000/svg">
<path d="M21.7854 42.64L22.8174 39.928L9.54544 33.28V30.88L19.8654 25.72V27.88L12.4254 31.504C12.1534 31.648 11.9054 31.768 11.6814 31.864C11.4574 31.96 11.2894 32.024 11.1774 32.056C11.2894 32.088 11.4574 32.152 11.6814 32.248C11.9054 32.344 12.1534 32.464 12.4254 32.608L23.4894 38.128L30.3054 20.08H32.5854L24.0654 42.64H21.7854Z" fill="#E55D8F"/>
<path d="M45.1468 40L40.6348 22.48H42.8668L45.8428 34.384C46.0508 35.216 46.2268 35.992 46.3708 36.712C46.5148 37.416 46.6188 37.952 46.6828 38.32C46.7468 37.952 46.8428 37.416 46.9708 36.712C47.1148 35.992 47.2908 35.216 47.4988 34.384L50.4508 22.48H52.6348L48.0988 40H45.1468ZM55.8654 40V38.032H60.5454V28.768H56.4654V26.8H62.7054V38.032H67.1454V40H55.8654ZM61.3854 24.424C60.8574 24.424 60.4414 24.288 60.1374 24.016C59.8334 23.744 59.6814 23.376 59.6814 22.912C59.6814 22.432 59.8334 22.056 60.1374 21.784C60.4414 21.496 60.8574 21.352 61.3854 21.352C61.9134 21.352 62.3294 21.496 62.6334 21.784C62.9374 22.056 63.0894 22.432 63.0894 22.912C63.0894 23.376 62.9374 23.744 62.6334 24.016C62.3294 24.288 61.9134 24.424 61.3854 24.424ZM70.4961 40V22.48H72.6561V32.248H75.2001L79.0401 26.8H81.5121L77.0721 33.088L81.5841 40H79.0641L75.2241 34.12H72.6561V40H70.4961ZM89.7827 40.24C88.2627 40.24 87.0467 39.792 86.1347 38.896C85.2227 37.984 84.7667 36.752 84.7667 35.2V26.8H86.9267V35.2C86.9267 36.192 87.1827 36.968 87.6947 37.528C88.2067 38.072 88.9027 38.344 89.7827 38.344C90.6787 38.344 91.3827 38.072 91.8947 37.528C92.4227 36.968 92.6867 36.192 92.6867 35.2V26.8H94.8467V35.2C94.8467 36.752 94.3827 37.984 93.4547 38.896C92.5267 39.792 91.3027 40.24 89.7827 40.24ZM105.997 40C105.229 40 104.557 39.848 103.981 39.544C103.405 39.24 102.957 38.808 102.637 38.248C102.317 37.688 102.157 37.032 102.157 36.28V24.448H97.7173V22.48H104.317V36.28C104.317 36.824 104.469 37.256 104.773 37.576C105.077 37.88 105.485 38.032 105.997 38.032H110.197V40H105.997ZM118.588 40.192C117.532 40.192 116.62 39.992 115.852 39.592C115.084 39.192 114.484 38.616 114.052 37.864C113.636 37.096 113.428 36.192 113.428 35.152V31.648C113.428 30.592 113.636 29.688 114.052 28.936C114.484 28.184 115.084 27.608 115.852 27.208C116.62 26.808 117.532 26.608 118.588 26.608C119.644 26.608 120.556 26.808 121.324 27.208C122.092 27.608 122.684 28.184 123.1 28.936C123.532 29.688 123.748 30.584 123.748 31.624V35.152C123.748 36.192 123.532 37.096 123.1 37.864C122.684 38.616 122.092 39.192 121.324 39.592C120.556 39.992 119.644 40.192 118.588 40.192ZM118.588 38.272C119.532 38.272 120.268 38.008 120.796 37.48C121.324 36.952 121.588 36.176 121.588 35.152V31.648C121.588 30.624 121.324 29.848 120.796 29.32C120.268 28.792 119.532 28.528 118.588 28.528C117.66 28.528 116.924 28.792 116.38 29.32C115.852 29.848 115.588 30.624 115.588 31.648V35.152C115.588 36.176 115.852 36.952 116.38 37.48C116.924 38.008 117.66 38.272 118.588 38.272ZM131.515 40L127.099 26.8H129.307L132.235 35.68C132.411 36.208 132.571 36.72 132.715 37.216C132.859 37.696 132.963 38.072 133.027 38.344C133.107 38.072 133.219 37.696 133.363 37.216C133.507 36.72 133.659 36.208 133.819 35.68L136.675 26.8H138.859L134.443 40H131.515Z" fill="white"/>
<path d="M149.475 38.44V36.352L156.915 32.704C157.219 32.56 157.499 32.44 157.755 32.344C158.027 32.232 158.227 32.16 158.355 32.128C158.211 32.096 158.003 32.032 157.731 31.936C157.459 31.824 157.187 31.696 156.915 31.552L149.475 27.88V25.72L159.795 30.88V33.28L149.475 38.44Z" fill="#E55D8F"/>
</svg>
