<svg width="32" height="32" viewBox="0 0 32 32" fill="none" xmlns="http://www.w3.org/2000/svg">
<g clip-path="url(#clip0_64_897)">
<path fill-rule="evenodd" clip-rule="evenodd" d="M16.025 19.8552L27.548 31.3781C27.9322 31.7492 28.4467 31.9545 28.9808 31.9499C29.5148 31.9452 30.0257 31.731 30.4034 31.3533C30.7811 30.9757 30.9953 30.4648 30.9999 29.9307C31.0046 29.3966 30.7993 28.8821 30.4282 28.4979L18.9053 16.975L30.4282 5.45202C30.7993 5.06785 31.0046 4.55331 30.9999 4.01924C30.9953 3.48516 30.7811 2.97427 30.4034 2.59661C30.0257 2.21894 29.5148 2.00472 28.9808 2.00008C28.4467 1.99544 27.9322 2.20075 27.548 2.57179L16.025 14.0947L4.50208 2.57179C4.11618 2.20992 3.60463 2.01238 3.07568 2.02097C2.54672 2.02956 2.04185 2.2436 1.66791 2.61781C1.29396 2.99203 1.08027 3.49704 1.07206 4.026C1.06384 4.55497 1.26174 5.06638 1.62389 5.45202L13.1448 16.975L1.62185 28.4979C1.4273 28.6858 1.27213 28.9106 1.16537 29.1591C1.05862 29.4076 1.00243 29.6749 1.00008 29.9454C0.997727 30.2158 1.04926 30.484 1.15168 30.7344C1.2541 30.9847 1.40535 31.2121 1.5966 31.4034C1.78786 31.5946 2.01529 31.7459 2.26562 31.8483C2.51595 31.9507 2.78417 32.0023 3.05464 31.9999C3.3251 31.9976 3.59239 31.9414 3.8409 31.8346C4.08941 31.7279 4.31418 31.5727 4.50208 31.3781L16.025 19.8552Z" fill="#E55D8F"/>
</g>
<defs>
<clipPath id="clip0_64_897">
<rect width="32" height="32" fill="white"/>
</clipPath>
</defs>
</svg>
