<svg width="151" height="151" viewBox="0 0 151 151" fill="none" xmlns="http://www.w3.org/2000/svg">
<g id="vscode-icons:file-type-css">
<path id="Vector" d="M28.1656 127.874L17.6375 9.74445H133.362L122.82 127.855L75.4296 140.994L28.1656 127.874Z" fill="#1572B6"/>
<path id="Vector_2" d="M75.5 130.954L113.797 120.337L122.806 19.4054H75.5V130.954Z" fill="#33A9DC"/>
<path id="Vector_3" d="M75.5 62.2023H94.6719L95.9937 47.3663H75.5V32.8773H111.828L111.481 36.7632L107.923 76.6913H75.5V62.2023Z" fill="white"/>
<path id="Vector_4" d="M75.5891 99.8288L75.5234 99.8476L59.3891 95.4882L58.3578 83.9335H43.8125L45.8422 106.682L75.5187 114.923L75.5891 114.904V99.8288Z" fill="#EBEBEB"/>
<path id="Vector_5" d="M93.439 76.0773L91.6953 95.4788L75.5375 99.8382V114.913L105.237 106.682L105.458 104.235L107.975 76.0773H93.439Z" fill="white"/>
<path id="Vector_6" d="M75.5515 32.8773V47.3663H40.5547L40.264 44.1085L39.6031 36.7632L39.2562 32.8773H75.5515ZM75.5 62.2023V76.6913H59.5672L59.2765 73.4335L58.6203 66.0882L58.2734 62.2023H75.5Z" fill="#EBEBEB"/>
</g>
</svg>
