<svg width="150" height="151" viewBox="0 0 150 151" fill="none" xmlns="http://www.w3.org/2000/svg">
<g id="devicon:git">
<path id="Vector" d="M146.676 68.7812L82.087 4.19443C78.3698 0.474902 72.337 0.474902 68.614 4.19443L55.203 17.6077L72.2163 34.621C76.1714 33.2862 80.7042 34.1815 83.8554 37.3327C87.0229 40.5038 87.9112 45.0753 86.5437 49.0433L102.941 65.4413C106.907 64.0737 111.486 64.9573 114.652 68.1308C119.082 72.5569 119.082 79.7323 114.652 84.1608C113.6 85.214 112.35 86.0495 110.974 86.6195C109.598 87.1895 108.124 87.4829 106.635 87.4829C105.146 87.4829 103.671 87.1895 102.296 86.6195C100.92 86.0495 99.6701 85.214 98.6175 84.1608C97.0359 82.5783 95.9578 80.5633 95.5189 78.3694C95.0799 76.1755 95.2997 73.9008 96.1507 71.8315L80.86 56.5409L80.8577 96.7843C81.9671 97.3306 82.98 98.0542 83.8565 98.9265C88.2839 103.353 88.2839 110.526 83.8565 114.961C79.428 119.387 72.2503 119.387 67.8265 114.961C63.3991 110.527 63.3991 103.354 67.8265 98.9265C68.8872 97.8641 70.1488 97.0235 71.5378 96.4538V55.8378C70.1477 55.2697 68.8857 54.4285 67.8265 53.364C64.4726 50.0124 63.6651 45.0905 65.3854 40.9702L48.6124 24.1972L4.32489 68.4823C2.53816 70.2696 1.53442 72.6934 1.53442 75.2206C1.53442 77.7478 2.53816 80.1716 4.32489 81.9589L68.9151 146.546C72.6347 150.265 78.6651 150.265 82.3905 146.546L146.677 82.2589C148.464 80.4711 149.467 78.0471 149.467 75.5198C149.467 72.9925 148.463 70.5686 146.676 68.7812Z" fill="#F34F29"/>
</g>
</svg>
