<svg width="50" height="50" viewBox="0 0 50 50" fill="none" xmlns="http://www.w3.org/2000/svg">
<g id="mdi:gmail">
<path id="Vector" d="M41.6666 37.4999H37.5V19.2708L25 27.0833L12.5 19.2708V37.4999H8.33329V12.4999H10.8333L25 21.3541L39.1666 12.4999H41.6666M41.6666 8.33325H8.33329C6.02079 8.33325 4.16663 10.1874 4.16663 12.4999V37.4999C4.16663 38.605 4.60561 39.6648 5.38701 40.4462C6.16842 41.2276 7.22822 41.6666 8.33329 41.6666H41.6666C42.7717 41.6666 43.8315 41.2276 44.6129 40.4462C45.3943 39.6648 45.8333 38.605 45.8333 37.4999V12.4999C45.8333 11.3949 45.3943 10.335 44.6129 9.55364C43.8315 8.77224 42.7717 8.33325 41.6666 8.33325Z" fill="#E55D8F"/>
</g>
</svg>
