<svg width="149" height="151" viewBox="0 0 149 151" fill="none" xmlns="http://www.w3.org/2000/svg">
<g id="vscode-icons:file-type-html">
<path id="Vector" d="M26.6656 127.874L16.1328 9.74445H131.867L121.32 127.855L73.9297 140.994L26.6656 127.874Z" fill="#E44F26"/>
<path id="Vector_2" d="M74 130.954L112.297 120.337L121.306 19.4054H74V130.954Z" fill="#F1662A"/>
<path id="Vector_3" d="M74 63.2148H54.8281L53.5063 48.3788H74V33.8898H37.6719L38.0188 37.7804L41.5766 77.7038H74V63.2148ZM74 100.841L73.9344 100.86L57.8 96.5054L56.7688 84.9507H42.2234L44.2531 107.694L73.9344 115.935L74 115.916V100.841Z" fill="#EBEBEB"/>
<path id="Vector_4" d="M73.9485 63.2148V77.7038H91.7891L90.111 96.496L73.9485 100.855V115.93L103.653 107.694L103.869 105.248L107.272 67.1054L107.628 63.2148H103.723H73.9485ZM73.9485 33.8898V48.3788H108.945L109.236 45.1257L109.897 37.7804L110.244 33.8898H73.9485Z" fill="white"/>
</g>
</svg>
