<svg width="151" height="151" viewBox="0 0 151 151" fill="none" xmlns="http://www.w3.org/2000/svg">
<g id="vscode-icons:file-type-js-official">
<path id="Vector" d="M9.875 9.74445H141.125V140.994H9.875V9.74445Z" fill="#F5DE19"/>
<path id="Vector_2" d="M98.0422 112.284C99.1605 114.555 100.898 116.464 103.054 117.791C105.211 119.118 107.698 119.809 110.23 119.784C115.339 119.784 118.606 117.229 118.606 113.69C118.606 109.471 115.25 107.962 109.625 105.501L106.541 104.179C97.6344 100.387 91.7282 95.6382 91.7282 85.5976C91.7282 76.3491 98.7594 69.3038 109.789 69.3038C113.36 69.046 116.927 69.8451 120.046 71.6015C123.166 73.3578 125.699 75.9937 127.33 79.1804L117.688 85.3445C117.059 83.7644 115.966 82.4126 114.552 81.4683C113.138 80.5239 111.47 80.0318 109.77 80.0569C109.029 79.9827 108.28 80.0638 107.571 80.295C106.862 80.5262 106.209 80.9026 105.654 81.4C105.099 81.8974 104.653 82.5051 104.346 83.1842C104.039 83.8633 103.876 84.599 103.869 85.3445C103.869 89.0429 106.161 90.5429 111.453 92.8445L114.538 94.1663C125.019 98.6616 130.944 103.241 130.944 113.54C130.944 124.644 122.22 130.729 110.506 130.729C105.942 131.02 101.391 129.983 97.4029 127.745C93.4146 125.507 90.1593 122.162 88.0297 118.115L98.0422 112.284ZM54.4719 113.352C56.4078 116.788 58.1703 119.694 62.4078 119.694C66.4578 119.694 69.0172 118.11 69.0172 111.946V70.0069H81.35V112.11C81.35 124.879 73.85 130.691 62.9328 130.691C59.0739 130.902 55.2414 129.941 51.9392 127.933C48.637 125.925 46.0197 122.965 44.4313 119.441L54.4719 113.352Z" fill="black"/>
</g>
</svg>
