<svg width="50" height="50" viewBox="0 0 50 50" fill="none" xmlns="http://www.w3.org/2000/svg">
<g id="lets-icons:e-mail">
<g id="Group">
<path id="Vector" d="M43.75 25.0001C43.7501 21.0823 42.5229 17.263 40.241 14.0784C37.959 10.8938 34.7368 8.5041 31.0269 7.24479C27.3171 5.98548 23.3059 5.91989 19.5569 7.05721C15.8078 8.19454 12.5092 10.4776 10.1243 13.5859C7.73942 16.6941 6.38806 20.4713 6.26002 24.387C6.13198 28.3027 7.23371 32.1601 9.41047 35.4175C11.5872 38.6749 14.7296 41.1686 18.3964 42.5484C22.0631 43.9282 26.07 44.1248 29.8542 43.1105" stroke="#E55D8F" stroke-width="4.67" stroke-linecap="round"/>
<path id="Vector_2" d="M25 33.3334C29.6023 33.3334 33.3333 29.6025 33.3333 25.0001C33.3333 20.3977 29.6023 16.6667 25 16.6667C20.3976 16.6667 16.6666 20.3977 16.6666 25.0001C16.6666 29.6025 20.3976 33.3334 25 33.3334Z" stroke="#E55D8F" stroke-width="4.67"/>
<path id="Vector_3" d="M33.3334 18.75V28.125C33.3334 29.5063 33.8821 30.8311 34.8589 31.8078C35.8356 32.7846 37.1604 33.3333 38.5417 33.3333C39.923 33.3333 41.2478 32.7846 42.2246 31.8078C43.2013 30.8311 43.75 29.5063 43.75 28.125V25" stroke="#E55D8F" stroke-width="4.67" stroke-linecap="round"/>
</g>
</g>
</svg>
