<svg width="151" height="151" viewBox="0 0 151 151" fill="none" xmlns="http://www.w3.org/2000/svg">
<g id="devicon:react">
<g id="Group">
<path id="Vector" d="M75.5 88.7288C82.8782 88.7288 88.8594 82.7476 88.8594 75.3694C88.8594 67.9913 82.8782 62.0101 75.5 62.0101C68.1218 62.0101 62.1406 67.9913 62.1406 75.3694C62.1406 82.7476 68.1218 88.7288 75.5 88.7288Z" fill="#61DAFB"/>
<path id="Vector_2" d="M126.242 53.3382C123.664 52.4007 120.969 51.4632 118.156 50.6429C118.859 47.8304 119.445 45.0179 119.914 42.3226C122.375 26.8538 119.68 15.9554 112.18 11.7366C109.953 10.4476 107.492 9.86163 104.68 9.86163C96.4766 9.86163 86.0469 15.9554 75.5 26.1507C64.9531 15.9554 54.5234 9.86163 46.3203 9.86163C43.5078 9.86163 41.0469 10.4476 38.8203 11.7366C31.3203 16.0726 28.625 26.971 31.0859 42.3226C31.5547 45.0179 32.1406 47.8304 32.8438 50.6429C30.0313 51.4632 27.3359 52.2835 24.7578 53.3382C10.1094 58.9632 2.14062 66.6976 2.14062 75.3694C2.14062 84.0413 10.2266 91.7757 24.7578 97.4007C27.3359 98.3382 30.0313 99.2757 32.8438 100.096C32.1406 102.909 31.5547 105.721 31.0859 108.416C28.625 123.885 31.3203 134.784 38.8203 139.002C41.0469 140.291 43.5078 140.877 46.3203 140.877C54.6406 140.877 65.0703 134.784 75.5 124.588C86.0469 134.784 96.4766 140.877 104.68 140.877C107.492 140.877 109.953 140.291 112.18 139.002C119.68 134.666 122.375 123.768 119.914 108.416C119.445 105.721 118.859 102.909 118.156 100.096C120.969 99.2757 123.664 98.4554 126.242 97.4007C140.891 91.7757 148.859 84.0413 148.859 75.3694C148.859 66.6976 140.891 58.9632 126.242 53.3382ZM108.898 17.596C113.703 20.4085 115.344 29.0804 113.352 41.3851C113 43.846 112.414 46.4241 111.711 49.1194C105.617 47.7132 99.1719 46.7757 92.375 46.1898C88.3906 40.5648 84.2891 35.5257 80.1875 30.9554C88.8594 22.4007 97.6484 16.5413 104.797 16.5413C106.32 16.5413 107.727 16.8929 108.898 17.596ZM95.7734 87.0882C93.6641 90.8382 91.2031 94.5882 88.625 98.3382C84.2891 98.6898 79.9531 98.8069 75.5 98.8069C70.9297 98.8069 66.5937 98.6898 62.375 98.3382C59.7969 94.5882 57.4531 90.8382 55.3437 87.0882C53.1172 83.221 51.0078 79.2366 49.1328 75.3694C51.0078 71.5023 53.1172 67.5179 55.3437 63.6507C57.4531 59.9007 59.9141 56.1507 62.4922 52.4007C66.8281 52.0491 71.1641 51.9319 75.6172 51.9319C80.1875 51.9319 84.5234 52.0491 88.7422 52.4007C91.3203 56.1507 93.6641 59.9007 95.7734 63.6507C98 67.5179 100.109 71.5023 101.984 75.3694C99.9922 79.2366 98 83.1038 95.7734 87.0882ZM105.5 83.221C107.258 87.3226 108.664 91.3069 109.953 95.2913C105.969 96.2288 101.75 96.9319 97.2969 97.5179C98.7031 95.2913 100.227 92.9476 101.516 90.4866C102.922 88.0257 104.211 85.5648 105.5 83.221ZM75.5 114.979C72.6875 111.932 69.9922 108.651 67.4141 105.252C70.1094 105.369 72.8047 105.487 75.5 105.487C78.1953 105.487 80.8906 105.369 83.5859 105.252C81.0078 108.651 78.3125 111.932 75.5 114.979ZM53.7031 97.4007C49.25 96.8148 45.0312 96.1116 41.0469 95.1741C42.3359 91.3069 43.7422 87.2054 45.5 83.1038C46.7891 85.4476 48.0781 87.9085 49.4844 90.2523C50.8906 92.8304 52.2969 95.057 53.7031 97.4007ZM45.5 67.5179C43.7422 63.4163 42.3359 59.4319 41.0469 55.4476C45.0312 54.5101 49.25 53.8069 53.7031 53.221C52.2969 55.4476 50.7734 57.7913 49.4844 60.2523C48.0781 62.7132 46.7891 65.1741 45.5 67.5179ZM75.5 35.7601C78.3125 38.8069 81.0078 42.0882 83.5859 45.4866C80.8906 45.3694 78.1953 45.2523 75.5 45.2523C72.8047 45.2523 70.1094 45.3694 67.4141 45.4866C69.9922 42.0882 72.6875 38.8069 75.5 35.7601ZM101.516 60.3694L97.2969 53.3382C101.75 53.9241 105.969 54.6273 109.953 55.5648C108.664 59.4319 107.258 63.5335 105.5 67.6351C104.211 65.1741 102.922 62.7132 101.516 60.3694ZM37.6484 41.3851C35.6563 29.0804 37.2969 20.4085 42.1016 17.596C43.2734 16.8929 44.6797 16.5413 46.2031 16.5413C53.2344 16.5413 62.0234 22.2835 70.8125 30.9554C66.7109 35.4085 62.6094 40.5648 58.625 46.1898C51.8281 46.7757 45.3828 47.8304 39.2891 49.1194C38.5859 46.4241 38.1172 43.846 37.6484 41.3851ZM8.70312 75.3694C8.70312 69.8616 15.3828 64.0023 27.1016 59.6663C29.4453 58.7288 32.0234 57.9085 34.6016 57.2054C36.4766 63.0648 38.8203 69.2757 41.6328 75.4866C38.8203 81.6976 36.3594 87.7913 34.6016 93.6507C18.4297 88.9632 8.70312 81.9319 8.70312 75.3694ZM42.1016 133.143C37.2969 130.33 35.6563 121.659 37.6484 109.354C38 106.893 38.5859 104.315 39.2891 101.619C45.3828 103.026 51.8281 103.963 58.625 104.549C62.6094 110.174 66.7109 115.213 70.8125 119.784C62.1406 128.338 53.3516 134.198 46.2031 134.198C44.6797 134.198 43.2734 133.846 42.1016 133.143ZM113.352 109.354C115.344 121.659 113.703 130.33 108.898 133.143C107.727 133.846 106.32 134.198 104.797 134.198C97.7656 134.198 88.9766 128.455 80.1875 119.784C84.2891 115.33 88.3906 110.174 92.375 104.549C99.1719 103.963 105.617 102.909 111.711 101.619C112.414 104.315 112.883 106.893 113.352 109.354ZM123.898 91.0726C121.555 92.0101 118.977 92.8304 116.398 93.5335C114.523 87.6741 112.18 81.4632 109.367 75.2523C112.18 69.0413 114.641 62.9476 116.398 57.0882C132.57 61.7757 142.297 68.8069 142.297 75.3694C142.297 80.8773 135.5 86.7366 123.898 91.0726Z" fill="#61DAFB"/>
</g>
</g>
</svg>
