<svg width="50" height="50" viewBox="0 0 50 50" fill="none" xmlns="http://www.w3.org/2000/svg">
<g id="simple-icons:telegram" clip-path="url(#clip0_8_228)">
<path id="Vector" d="M24.8833 6.80557e-05C18.2732 0.0309159 11.9442 2.67845 7.28103 7.36352C2.61783 12.0486 -7.19772e-05 18.3898 1.48424e-09 25.0001C1.48425e-09 31.6305 2.63392 37.9893 7.32233 42.6777C12.0107 47.3661 18.3696 50.0001 25 50.0001C31.6304 50.0001 37.9893 47.3661 42.6777 42.6777C47.3661 37.9893 50 31.6305 50 25.0001C50 18.3697 47.3661 12.0108 42.6777 7.3224C37.9893 2.63399 31.6304 6.80557e-05 25 6.80557e-05C24.9611 -2.26852e-05 24.9222 -2.26852e-05 24.8833 6.80557e-05ZM35.2208 15.0501C35.4292 15.0459 35.8896 15.098 36.1896 15.3417C36.3889 15.5149 36.5161 15.7565 36.5458 16.0188C36.5792 16.2126 36.6208 16.6563 36.5875 17.0022C36.2125 20.9563 34.5833 30.548 33.7542 34.9751C33.4042 36.8501 32.7146 37.4772 32.0458 37.5376C30.5958 37.673 29.4937 36.5792 28.0875 35.6584C25.8875 34.2147 24.6437 33.3167 22.5083 31.9084C20.0396 30.2834 21.6396 29.3876 23.0458 27.9292C23.4146 27.5459 29.8104 21.7272 29.9354 21.2001C29.95 21.1334 29.9646 20.8876 29.8187 20.7584C29.6729 20.6292 29.4562 20.673 29.3 20.7084C29.0792 20.7584 25.5646 23.0834 18.7562 27.6772C17.7562 28.3647 16.8542 28.698 16.0437 28.6772C15.1521 28.6605 13.4354 28.1751 12.1583 27.7605C10.5917 27.2501 9.34792 26.9813 9.45625 26.1167C9.5125 25.6667 10.1333 25.2063 11.3167 24.7355C18.6042 21.5605 23.4625 19.4667 25.8958 18.4563C32.8375 15.5688 34.2812 15.0667 35.2208 15.0501Z" fill="#E55D8F"/>
</g>
<defs>
<clipPath id="clip0_8_228">
<rect width="50" height="50" fill="white"/>
</clipPath>
</defs>
</svg>
